<?xml version="1.0" encoding="utf-8"?>
<!-- Generator: Adobe Illustrator 22.0.0, SVG Export Plug-In . SVG Version: 6.00 Build 0)  -->
<svg version="1.1" id="Layer_1" xmlns="http://www.w3.org/2000/svg" xmlns:xlink="http://www.w3.org/1999/xlink" x="0px" y="0px"
	 viewBox="0 0 24 24" style="enable-background:new 0 0 24 24;" xml:space="preserve">
<style type="text/css">
	.st0{fill:none;}
</style>
<path class="st0" d="M0,0h24v24H0V0z"/>
<g>
	<g>
		<path d="M17,21.8H7c-2.9,0-5.2-2.3-5.2-5.2V7.4c0-2.9,2.3-5.2,5.2-5.2h10c2.9,0,5.2,2.3,5.2,5.2v9.2C22.2,19.5,19.9,21.8,17,21.8z
			 M7,3.2c-2.3,0-4.2,1.9-4.2,4.2v9.2c0,2.3,1.9,4.2,4.2,4.2h10c2.3,0,4.2-1.9,4.2-4.2V7.4c0-2.3-1.9-4.2-4.2-4.2H7z"/>
	</g>
	<g>
		<path d="M12,17.3c-2.9,0-5.3-2.4-5.3-5.3S9.1,6.7,12,6.7s5.3,2.4,5.3,5.3S14.9,17.3,12,17.3z M12,7.7c-2.4,0-4.3,1.9-4.3,4.3
			c0,2.4,1.9,4.3,4.3,4.3c2.4,0,4.3-1.9,4.3-4.3C16.3,9.6,14.4,7.7,12,7.7z"/>
	</g>
	<g>
		<path d="M17.9,7.9c-0.8,0-1.5-0.7-1.5-1.5s0.7-1.5,1.5-1.5s1.5,0.7,1.5,1.5S18.8,7.9,17.9,7.9z M17.9,5.7c-0.4,0-0.7,0.3-0.7,0.7
			s0.3,0.7,0.7,0.7s0.7-0.3,0.7-0.7S18.3,5.7,17.9,5.7z"/>
	</g>
</g>
</svg>
